Coordinates
version=1
nRows=17
nColumns=40
inDegrees=yes

Units are S.I. units (second, meters, Newtons, ...)
If the header above contains a line with 'inDegrees', this indicates whether rotational values are in degrees (yes) or radians (no).

endheader
time	pelvis_tilt	pelvis_list	pelvis_rotation	pelvis_tx	pelvis_ty	pelvis_tz	hip_flexion_r	hip_adduction_r	hip_rotation_r	knee_angle_r	knee_angle_r_beta	ankle_angle_r	subtalar_angle_r	mtp_angle_r	hip_flexion_l	hip_adduction_l	hip_rotation_l	knee_angle_l	knee_angle_l_beta	ankle_angle_l	subtalar_angle_l	mtp_angle_l	lumbar_extension	lumbar_bending	lumbar_rotation	arm_flex_r	arm_add_r	arm_rot_r	elbow_flex_r	pro_sup_r	wrist_flex_r	wrist_dev_r	arm_flex_l	arm_add_l	arm_rot_l	elbow_flex_l	pro_sup_l	wrist_flex_l	wrist_dev_l
      1.19000000	      0.61551428	      6.86825956	    -87.83043108	      0.20206475	      0.92446783	      0.73427245	     33.93844372	      0.38001566	     -4.36328944	      6.83622560	      0.11931465	     -0.75607343	     -0.00000000	      0.00000000	    -10.11552423	      3.26375788	      3.58071478	     15.14919912	      0.26440340	      7.77699717	     -0.00000000	     -0.00000000	      1.33761996	     -1.21487898	     -4.35447612	      0.00000000	     -0.00000000	      0.00000000	      0.00000000	      0.00000000	     -0.00000000	     -0.00000000	     -0.00000000	      0.00000000	      0.00000000	      0.00000000	      0.00000000	     -0.00000000	     -0.00000000
      1.20000000	      0.14462600	      7.01129914	    -87.64835693	      0.20129310	      0.92327731	      0.75138111	     34.33117070	      0.74726079	     -5.38237850	      8.68876381	      0.15164754	     -2.47368976	      0.00000000	      0.00000000	     -9.77835702	      2.54689406	      3.08969653	     17.27008117	      0.30141978	      6.51073833	      0.00000000	      0.00000000	      1.64736262	     -0.61011296	     -4.29555762	      0.00000000	      0.00000000	      0.00000000	      0.00000000	      0.00000000	      0.00000000	      0.00000000	      0.00000000	      0.00000000	      0.00000000	      0.00000000	      0.00000000	      0.00000000	      0.00000000
      1.21000000	     -0.36467709	      7.18639365	    -87.49592705	      0.20050714	      0.92247478	      0.76857140	     34.72393608	      1.11344808	     -6.40165560	     10.63606058	      0.18563428	     -4.33310042	      0.00000000	     -0.00000000	     -9.19593595	      1.76541880	      2.55345489	     19.64816445	      0.34292516	      4.76151969	     -0.00000000	     -0.00000000	      2.02522847	      0.05053986	     -4.20789235	     -0.00000000	      0.00000000	     -0.00000000	      0.00000000	      0.00000000	      0.00000000	     -0.00000000	      0.00000000	     -0.00000000	      0.00000000	      0.00000000	      0.00000000	      0.00000000	     -0.00000000
      1.22000000	     -0.83795814	      7.23671632	    -87.41966441	      0.19959766	      0.92226509	      0.78582941	     34.91776063	      1.45519952	     -7.28249297	     12.59012475	      0.21973913	     -6.05401162	     -0.00000000	      0.00000000	     -8.55167788	      0.97684585	      1.91260191	     22.23585539	      0.38808889	      2.44759729	     -0.00000000	      0.00000000	      2.24983515	      0.67436751	     -4.02607934	     -0.00000000	     -0.00000000	     -0.00000000	      0.00000000	      0.00000000	      0.00000000	      0.00000000	      0.00000000	      0.00000000	     -0.00000000	      0.00000000	      0.00000000	     -0.00000000	     -0.00000000
      1.23000000	     -1.33830597	      7.27983280	    -87.37474913	      0.19860961	      0.92253027	      0.80308345	     35.02003564	      1.82683852	     -8.01472257	     14.47509551	      0.25263808	     -7.50791089	      0.00000000	     -0.00000000	     -7.68822015	      0.11761183	      1.24823570	     25.06269955	      0.43742663	     -0.42621058	      0.00000000	     -0.00000000	      2.48877527	      1.33128750	     -3.81138197	     -0.00000000	      0.00000000	     -0.00000000	      0.00000000	      0.00000000	      0.00000000	      0.00000000	     -0.00000000	     -0.00000000	      0.00000000	      0.00000000	      0.00000000	      0.00000000	     -0.00000000
      1.24000000	     -1.83329971	      7.30456691	    -87.38982571	      0.19750474	      0.92324413	      0.82027642	     34.99296711	      2.23982696	     -8.48944003	     16.22632960	      0.28320288	     -8.53432203	      0.00000000	      0.00000000	     -6.61441431	     -0.77144330	      0.57924718	     28.13578691	      0.49106212	     -3.83526224	      0.00000000	      0.00000000	      2.69654736	      1.98048423	     -3.52338108	      0.00000000	      0.00000000	      0.00000000	      0.00000000	      0.00000000	      0.00000000	      0.00000000	      0.00000000	      0.00000000	      0.00000000	      0.00000000	      0.00000000	      0.00000000	      0.00000000
      1.25000000	     -2.30923870	      7.25651220	    -87.42402525	      0.19628053	      0.92446097	      0.83734132	     34.77508188	      2.67411432	     -8.80650899	     17.82196645	      0.31105199	     -9.05557147	      0.00000000	      0.00000000	     -5.38801274	     -1.69757258	     -0.05477976	     31.43733093	      0.54868493	     -7.63160769	      0.00000000	      0.00000000	      2.81002492	      2.58759444	     -3.20374190	      0.00000000	      0.00000000	      0.00000000	      0.00000000	      0.00000000	      0.00000000	      0.00000000	      0.00000000	      0.00000000	      0.00000000	      0.00000000	      0.00000000	      0.00000000	      0.00000000
      1.26000000	     -2.79559654	      7.24539526	    -87.49180004	      0.19495632	      0.92598261	      0.85423994	     34.46294174	      3.17908151	     -8.92528664	     19.21012703	      0.33527997	     -9.11798723	      0.00000000	      0.00000000	     -3.90254134	     -2.64476491	     -0.57271643	     34.93976376	      0.60981392	    -11.81303803	      0.00000000	      0.00000000	      2.94577619	      3.19668271	     -2.83572360	      0.00000000	      0.00000000	      0.00000000	      0.00000000	      0.00000000	      0.00000000	      0.00000000	      0.00000000	      0.00000000	      0.00000000	      0.00000000	      0.00000000	      0.00000000	      0.00000000
      1.27000000	     -3.24308691	      7.21853564	    -87.55941669	      0.19354915	      0.92783634	      0.87090419	     33.99470671	      3.70099288	     -8.90693874	     20.35995098	      0.35534818	     -8.77815569	     -0.00000000	     -0.00000000	     -2.24959777	     -3.58007108	     -0.99095497	     38.56025918	      0.67300348	    -15.96137003	      0.00000000	     -0.00000000	      3.04172696	      3.73898963	     -2.44978471	     -0.00000000	     -0.00000000	     -0.00000000	      0.00000000	      0.00000000	     -0.00000000	      0.00000000	     -0.00000000	      0.00000000	     -0.00000000	      0.00000000	      0.00000000	     -0.00000000	     -0.00000000
      1.28000000	     -3.65154471	      7.18195780	    -87.62905489	      0.19209290	      0.92997795	      0.88731799	     33.37589053	      4.23176305	     -8.80455478	     21.26631355	      0.37116719	     -8.15131121	      0.00000000	      0.00000000	     -0.43688507	     -4.46640065	     -1.26372790	     42.25876922	      0.73755466	    -19.81083240	      0.00000000	      0.00000000	      3.10151308	      4.21445777	     -2.05847559	      0.00000000	      0.00000000	      0.00000000	      0.00000000	      0.00000000	      0.00000000	      0.00000000	      0.00000000	      0.00000000	      0.00000000	      0.00000000	      0.00000000	      0.00000000	      0.00000000
      1.29000000	     -4.03590053	      7.16995612	    -87.67449308	      0.19061964	      0.93229393	      0.90343096	     32.65310853	      4.76998694	     -8.68193750	     21.92632866	      0.38268663	     -7.33071661	      0.00000000	      0.00000000	      1.54485442	     -5.30013665	     -1.36975583	     45.95521493	      0.80206981	    -23.11802139	      0.00000000	      0.00000000	      3.16053618	      4.64041168	     -1.68966564	      0.00000000	      0.00000000	      0.00000000	      0.00000000	      0.00000000	      0.00000000	      0.00000000	      0.00000000	      0.00000000	      0.00000000	      0.00000000	      0.00000000	      0.00000000	      0.00000000
      1.30000000	     -4.36315636	      7.11669817	    -87.71050604	      0.18915887	      0.93485838	      0.91930998	     31.75088714	      5.28744255	     -8.50133250	     22.33762139	      0.38986504	     -6.42389629	      0.00000000	      0.00000000	      3.56445562	     -6.01354038	     -1.31604732	     49.50887573	      0.86409289	    -25.58538542	      0.00000000	      0.00000000	      3.15267175	      4.97479112	     -1.30152541	      0.00000000	      0.00000000	      0.00000000	      0.00000000	      0.00000000	      0.00000000	      0.00000000	      0.00000000	      0.00000000	      0.00000000	      0.00000000	      0.00000000	      0.00000000	      0.00000000
      1.31000000	     -4.62735003	      7.09916719	    -87.70731008	      0.18774916	      0.93753789	      0.93492089	     30.74447034	      5.76223129	     -8.30743363	     22.48336225	      0.39240870	     -5.45898004	      0.00000000	      0.00000000	      5.70301396	     -6.61090018	     -1.17061468	     52.88090981	      0.92294599	    -27.15293420	      0.00000000	      0.00000000	      3.15912859	      5.22140278	     -0.93975630	      0.00000000	      0.00000000	      0.00000000	      0.00000000	      0.00000000	      0.00000000	      0.00000000	      0.00000000	      0.00000000	      0.00000000	      0.00000000	      0.00000000	      0.00000000	      0.00000000
      1.32000000	     -4.80931537	      7.12097286	    -87.66008048	      0.18640770	      0.94027793	      0.95022655	     29.69074617	      6.16234119	     -8.04954659	     22.43042753	      0.39148481	     -4.54354058	      0.00000000	      0.00000000	      7.93221123	     -7.02822570	     -0.88955471	     55.99430446	      0.97728498	    -27.66948622	      0.00000000	      0.00000000	      3.19781932	      5.35186770	     -0.63009859	      0.00000000	      0.00000000	      0.00000000	      0.00000000	      0.00000000	      0.00000000	      0.00000000	      0.00000000	      0.00000000	      0.00000000	      0.00000000	      0.00000000	      0.00000000	      0.00000000
      1.33000000	     -4.88925400	      7.27616005	    -87.57301054	      0.18518263	      0.94290964	      0.96525651	     28.70639704	      6.43800467	     -7.82932313	     22.22151561	      0.38783861	     -3.75121186	      0.00000000	      0.00000000	     10.33890489	     -7.25852468	     -0.56957279	     58.80241404	      1.02629573	    -27.14444752	      0.00000000	      0.00000000	      3.36940985	      5.34542938	     -0.41980910	      0.00000000	      0.00000000	      0.00000000	      0.00000000	      0.00000000	      0.00000000	      0.00000000	      0.00000000	      0.00000000	      0.00000000	      0.00000000	      0.00000000	      0.00000000	      0.00000000
      1.34000000	     -4.89243704	      7.27428129	    -87.47545135	      0.18401394	      0.94589975	      0.98022195	     27.42289643	      6.66388054	     -7.53927431	     21.76851433	      0.37993225	     -2.91861320	      0.00000000	      0.00000000	     12.50978498	     -7.35538324	     -0.28563216	     61.13555370	      1.06701670	    -25.82606098	      0.00000000	      0.00000000	      3.34595154	      5.24157921	     -0.16964106	      0.00000000	      0.00000000	      0.00000000	      0.00000000	      0.00000000	      0.00000000	      0.00000000	      0.00000000	      0.00000000	      0.00000000	      0.00000000	      0.00000000	      0.00000000	      0.00000000
      1.35000000	     -4.80155377	      7.34105428	    -87.34763344	      0.18296932	      0.94881176	      0.99497135	     26.16461682	      6.76866759	     -7.27255359	     21.20157243	      0.37003725	     -2.23957399	      0.00000000	      0.00000000	     14.73077903	     -7.27074385	     -0.00244176	     63.06249185	      1.10064812	    -23.81127860	      0.00000000	      0.00000000	      3.38771339	      5.02058332	      0.01207344	      0.00000000	      0.00000000	      0.00000000	      0.00000000	      0.00000000	      0.00000000	      0.00000000	      0.00000000	      0.00000000	      0.00000000	      0.00000000	      0.00000000	      0.00000000	      0.00000000
